<?xml version="1.0" encoding="UTF-8" standalone="no"?>
<svg
   xmlns:dc="http://purl.org/dc/elements/1.1/"
   xmlns:cc="http://creativecommons.org/ns#"
   xmlns:rdf="http://www.w3.org/1999/02/22-rdf-syntax-ns#"
   xmlns:svg="http://www.w3.org/2000/svg"
   xmlns="http://www.w3.org/2000/svg"
   xmlns:sodipodi="http://sodipodi.sourceforge.net/DTD/sodipodi-0.dtd"
   xmlns:inkscape="http://www.inkscape.org/namespaces/inkscape"
   version="1.1"
   x="0px"
   y="0px"
   viewBox="0 0 73.542572 61.635094"
   enable-background="new 0 0 100 100"
   xml:space="preserve"
   id="svg162"
   sodipodi:docname="romanesco.svg"
   inkscape:version="1.0.1 (3bc2e813f5, 2020-09-07)"
   width="73.542572"
   height="61.635094"><metadata
     id="metadata168"><rdf:RDF><cc:Work
         rdf:about=""><dc:format>image/svg+xml</dc:format><dc:type
           rdf:resource="http://purl.org/dc/dcmitype/StillImage" /><dc:title></dc:title></cc:Work></rdf:RDF></metadata><defs
     id="defs166" /><sodipodi:namedview
     pagecolor="#ffffff"
     bordercolor="#666666"
     borderopacity="1"
     objecttolerance="10"
     gridtolerance="10"
     guidetolerance="10"
     inkscape:pageopacity="0"
     inkscape:pageshadow="2"
     inkscape:window-width="1920"
     inkscape:window-height="1009"
     id="namedview164"
     showgrid="false"
     inkscape:zoom="6.736"
     inkscape:cx="37.079578"
     inkscape:cy="42.250805"
     inkscape:window-x="-8"
     inkscape:window-y="-8"
     inkscape:window-maximized="1"
     inkscape:current-layer="svg162"
     inkscape:document-rotation="0"
     fit-margin-top="0"
     fit-margin-left="0"
     fit-margin-right="0"
     fit-margin-bottom="0" /><g
     id="g156"
     transform="translate(-12.920422,-20.249195)"><g
       id="g154"><path
         fill="#000000"
         d="m 27.33789,68.97314 c 1.26855,-0.23486 3.72314,-0.69434 4.99512,-0.96924 0.54004,-0.1167 0.88281,-0.64941 0.76611,-1.18896 -0.11719,-0.54004 -0.64795,-0.88086 -1.18896,-0.76611 -1.69336,0.36621 -5.68799,1.0957 -5.72852,1.10303 -0.44482,0.08105 -0.77979,0.45117 -0.81689,0.90186 -0.06689,0.81299 -0.0166,1.60254 0.10986,2.35156 h -1.29199 c -0.55225,0 -1,0.44775 -1,1 0,0.55225 0.44775,1 1,1 h 1.7207 c 0.03418,0 0.06348,-0.01611 0.09668,-0.01953 0.80273,2.24365 2.05518,3.79688 2.13721,3.89648 0.19727,0.24072 0.4834,0.36475 0.77197,0.36475 0.22314,0 0.44727,-0.07422 0.6333,-0.22656 0.42676,-0.34912 0.48975,-0.979 0.14111,-1.40625 -0.02441,-0.02979 -2.25927,-2.80812 -2.3457,-6.04103 z"
         id="path2" /><path
         fill="#000000"
         d="m 23.07666,65.54297 c 0.16895,0 0.34033,-0.04297 0.49756,-0.1333 0.47852,-0.2749 0.64355,-0.88623 0.36816,-1.36523 -0.02832,-0.04932 -2.61084,-4.5874 -2.66357,-8.33398 1.43701,0.06934 3.97168,0.11475 5.33594,-0.30811 0.52734,-0.16357 0.82227,-0.72412 0.65869,-1.25146 -0.16406,-0.52734 -0.72412,-0.82422 -1.25146,-0.65869 -0.31982,0.09961 -0.76318,0.16406 -1.26562,0.20459 -0.62695,-2.25928 -1.66113,-7.02783 -1.11377,-9.81885 1.7583,0.46875 5.3125,1.37939 6.47266,1.40381 0.54443,0.0098 1.00928,-0.42676 1.021,-0.979 0.01123,-0.55225 -0.42676,-1.00928 -0.979,-1.021 -0.07617,-0.0015 -0.17773,-0.01172 -0.29053,-0.02539 0.06396,-1.0708 0.21484,-3.4502 0.38672,-5.07715 4.97412,0.64795 5.43945,0.35205 5.72461,0.17188 0.46582,-0.29688 0.60303,-0.91504 0.30664,-1.38086 -0.26123,-0.41016 -0.77246,-0.56738 -1.20703,-0.39453 -0.61719,0.07471 -3.32471,-0.20312 -5.55469,-0.51318 -0.55127,-0.07861 -1.04492,0.2998 -1.12646,0.84082 -0.21924,1.44434 -0.4209,4.49219 -0.51025,5.97021 -1.50049,-0.33984 -3.36572,-0.82324 -4.66309,-1.18066 -0.48535,-0.13525 -1.00342,0.11914 -1.19336,0.59082 -1.27344,3.16846 0.05127,9.08936 0.67188,11.46533 -0.93408,-0.01172 -1.80713,-0.05762 -2.29248,-0.0957 -0.53174,-0.04248 -1.00879,0.34717 -1.07129,0.88086 -0.53076,4.52783 2.73193,10.26514 2.87109,10.50732 0.18454,0.32176 0.52146,0.50145 0.86765,0.50145 z"
         id="path4" /><path
         fill="#000000"
         d="m 25.63281,75.01709 c -1.23975,-0.32715 -3.58984,-2.72656 -5.25488,-4.6875 1.63037,-0.67627 3.36133,-1.6626 3.45557,-1.71631 0.47949,-0.27441 0.64551,-0.88525 0.37158,-1.36475 -0.27441,-0.47949 -0.88525,-0.64502 -1.36475,-0.37158 -0.16504,0.09424 -0.40918,0.229 -0.68848,0.37842 -0.0459,-0.0249 -0.08252,-0.06152 -0.1333,-0.0791 -4.69678,-1.63672 -6.37354,-7.74512 -6.89502,-10.46045 1.00635,0.11279 2.11475,0.17285 2.42725,0.18799 0.53369,0.0415 1.021,-0.39697 1.04785,-0.94873 0.02734,-0.55176 -0.39746,-1.021 -0.94873,-1.04834 -1.13574,-0.05664 -2.94824,-0.20508 -3.42236,-0.35791 -0.3208,-0.10303 -0.67236,-0.03906 -0.93506,0.17334 -0.26221,0.21143 -0.40039,0.54102 -0.36719,0.87695 0.04053,0.41211 1.00684,9.43408 6.92773,12.77783 -0.51172,0.22119 -1.00488,0.41162 -1.40479,0.51709 -0.32568,0.08594 -0.58643,0.32959 -0.69336,0.64844 -0.10742,0.31934 -0.04688,0.6709 0.16064,0.93604 0.46289,0.58984 4.59424,5.78369 7.20752,6.47217 0.08545,0.02246 0.17139,0.03369 0.25537,0.03369 0.44336,-4.9e-4 0.84814,-0.29688 0.96631,-0.74561 0.14113,-0.53418 -0.17772,-1.08106 -0.7119,-1.22168 z"
         id="path6" /><path
         fill="#000000"
         d="m 34.63281,65.5376 c 0.23535,0 0.47217,-0.08301 0.6626,-0.25146 0.41309,-0.36572 0.45166,-0.99805 0.08545,-1.41162 -1.27002,-1.43457 -2.8623,-5.66455 -3.65088,-8.00098 1.98877,-0.85938 5.66504,-2.87646 6.93896,-3.58301 0.4834,-0.26807 0.65771,-0.87646 0.38965,-1.35938 -0.26758,-0.48291 -0.87744,-0.65625 -1.35938,-0.38965 -1.52051,0.84326 -3.19775,1.73975 -4.58105,2.4458 -1.06592,-1.41016 -2.32422,-3.3916 -2.68945,-4.63525 1.55713,-0.4624 4.52637,-1.4458 5.62793,-2.50195 0.39844,-0.38232 0.41162,-1.01514 0.0293,-1.41406 -0.38232,-0.39844 -1.01562,-0.41162 -1.41406,-0.0293 -0.73682,0.70654 -3.7207,1.74316 -5.604,2.25342 -0.41455,0.1123 -0.71094,0.47607 -0.73682,0.90479 -0.11426,1.87793 1.87939,4.85596 2.95947,6.32129 -0.48584,0.2251 -0.83789,0.37012 -0.99854,0.40332 -0.27979,0.05371 -0.52344,0.22461 -0.66992,0.46924 -0.146,0.24512 -0.18066,0.54053 -0.09521,0.8125 0.23486,0.74707 2.35156,7.36377 4.35693,9.62939 0.19726,0.22314 0.47266,0.33691 0.74902,0.33691 z"
         id="path8" /><path
         fill="#000000"
         d="m 49.58008,65.42578 c -0.53076,0.09473 -2.30176,0.60645 -4.31055,1.22168 -0.53857,-2.15381 -1.9707,-5.74414 -2.70312,-7.52051 0.98047,-0.43457 2.375,-1.22168 4.1709,-2.35449 0.46729,-0.29443 0.60742,-0.91211 0.3125,-1.37891 -0.29443,-0.4668 -0.91162,-0.60693 -1.37891,-0.3125 -1.75977,1.10938 -3.98535,2.35938 -4.41748,2.44727 -0.34326,0.01172 -0.65918,0.1582 -0.84912,0.43945 -0.18994,0.28076 -0.2251,0.63916 -0.09229,0.95117 1.02881,2.42383 2.60547,6.45264 3.05078,8.3208 -2.31689,0.72998 -4.55127,1.4707 -5.2959,1.7832 -0.50342,0.21094 -0.74463,0.78662 -0.5415,1.29346 0.15088,0.37744 3.79346,9.26758 11.95703,11.16406 0.07568,0.01758 0.15186,0.02588 0.22705,0.02588 0.45459,0 0.86572,-0.31201 0.97314,-0.77393 0.125,-0.5376 -0.20996,-1.0752 -0.74805,-1.2002 -5.68701,-1.32129 -8.9917,-6.81152 -10.11523,-9.02734 2.69727,-0.93994 9.12695,-2.93457 10.1123,-3.11035 0.54346,-0.09717 0.90576,-0.61621 0.80859,-1.16016 -0.09667,-0.54344 -0.61034,-0.90477 -1.16014,-0.80858 z"
         id="path10" /><path
         fill="#000000"
         d="m 45.91113,43.28711 c 0,0 -4.10156,-0.49658 -5.08594,-0.59912 -0.27979,-0.02637 -0.55566,0.06006 -0.76514,0.24512 -0.20996,0.18506 -0.33252,0.44922 -0.33838,0.72852 -0.0044,0.21045 -0.08252,5.18994 2.06201,8.32861 0.19385,0.28369 0.50732,0.43604 0.82666,0.43604 0.19434,0 0.39062,-0.05664 0.56299,-0.17432 0.45605,-0.31152 0.57324,-0.93359 0.26172,-1.38965 -1.23779,-1.81201 -1.58301,-4.54492 -1.67822,-6.05664 1.55859,0.18164 3.91357,0.4668 3.91406,0.4668 z"
         id="path12" /><path
         fill="#000000"
         d="m 37.20752,39.24854 c -0.0068,0 -0.01367,0 -0.021,0 -0.54248,0 -0.98779,0.43408 -0.99951,0.979 -0.02197,1.06885 0.63916,3.63916 0.77246,4.14355 0.11816,0.44873 0.52295,0.74561 0.96631,0.74561 0.08398,0 0.16992,-0.01074 0.25537,-0.03369 0.53369,-0.14062 0.85303,-0.6875 0.71191,-1.22168 -0.19678,-0.74805 -0.44434,-1.80908 -0.58789,-2.61523 1.00391,-0.02246 2.37354,-0.10889 3.10596,-0.39648 0.51416,-0.20166 0.76758,-0.78174 0.56543,-1.2959 -0.13281,-0.33887 -0.43506,-0.54883 -0.76953,-0.60547 0.09229,-0.58594 0.23486,-1.5083 0.33154,-2.23242 1.02783,-0.02539 2.49316,-0.09521 3.09277,-0.28125 0.52783,-0.16406 0.82227,-0.72412 0.65869,-1.25146 -0.16455,-0.52832 -0.72656,-0.82275 -1.25146,-0.65869 -0.35889,0.11133 -2.0498,0.19678 -3.40381,0.20605 -0.53906,0.0039 -0.97852,0.43994 -0.99316,0.979 -0.0073,0.27295 -0.24902,1.92334 -0.46875,3.29541 -0.01123,0.06934 0.0049,0.13477 0.0083,0.20264 -0.66797,0.04296 -1.41015,0.05419 -1.97363,0.04101 z"
         id="path14" /><path
         fill="#000000"
         d="m 64.84668,44.58008 c -0.39502,-0.05518 -2.3916,-0.77832 -4.01465,-1.41699 -0.51416,-0.2041 -1.09473,0.05127 -1.29688,0.56445 -0.20215,0.51416 0.05078,1.09473 0.56445,1.29688 1.6543,0.65088 2.8916,1.09863 3.69971,1.34082 0.03076,2.47168 -0.22803,6.07617 -1.11719,7.15332 -0.35156,0.42578 -0.2915,1.05615 0.13428,1.40771 0.18652,0.15381 0.41211,0.229 0.63623,0.229 0.28809,0 0.57373,-0.12402 0.77148,-0.36328 1.75195,-2.12158 1.60205,-8.08252 1.5542,-9.25586 -0.02147,-0.52832 -0.40331,-0.94531 -0.93163,-0.95605 z"
         id="path16" /><path
         fill="#000000"
         d="m 64.34668,57.2666 c -0.76025,-0.33545 -3.4668,-1.86377 -4.44531,-2.42432 -0.479,-0.27539 -1.09033,-0.10791 -1.36475,0.37061 -0.27441,0.47949 -0.1084,1.09033 0.37061,1.36475 0.12109,0.06934 2.49365,1.42725 3.89404,2.15527 -0.44238,1.7168 -2.01855,6.24561 -6.84814,9.44238 -0.46094,0.30518 -0.58691,0.92529 -0.28223,1.38574 0.19238,0.29102 0.51074,0.44824 0.83496,0.44824 0.18945,0 0.38135,-0.05371 0.55078,-0.16602 6.77734,-4.48633 7.83398,-11.23193 7.87549,-11.51709 0.06543,-0.44432 -0.17432,-0.87792 -0.58545,-1.05956 z"
         id="path18" /><path
         fill="#000000"
         d="m 86.05566,51.20508 c -0.29395,-0.22461 -0.70508,-0.26221 -1.04102,-0.10742 -0.61279,0.27881 -3.79248,0.15381 -6.5083,-0.13916 0.25684,-2.23682 -0.15283,-3.73828 -0.18213,-3.83984 -0.12158,-0.42041 -0.50244,-0.71338 -0.94043,-0.72266 -0.16992,-0.0034 -0.40576,-0.03369 -0.66504,-0.07373 0.34473,-1.90723 -0.17969,-3.9585 -0.25293,-4.22656 -0.14014,-0.51709 -0.66406,-0.83057 -1.18701,-0.71289 -0.56152,0.12842 -2.39648,0.02148 -3.55469,-0.09668 0.24121,-1.72949 0.27734,-3.24414 0.2793,-3.34521 0.0059,-0.30127 -0.15186,-0.58252 -0.38086,-0.77734 -0.22998,-0.19434 -0.56543,-0.26953 -0.8584,-0.21436 -0.26514,0.0498 -1.43408,-0.02588 -2.49902,-0.1626 -0.54541,-0.06982 -1.04834,0.31738 -1.11865,0.86475 -0.07031,0.54785 0.31689,1.04883 0.86475,1.11865 0.51904,0.06689 1.2666,0.15039 1.94043,0.18018 -0.08447,1.25928 -0.2998,3.37988 -0.83545,4.8335 -0.19092,0.51855 0.07471,1.09326 0.59277,1.28418 0.11426,0.04199 0.23096,0.06201 0.3457,0.06201 0.40674,-4.9e-4 0.78955,-0.25049 0.93848,-0.65479 0.1416,-0.38477 0.26172,-0.80469 0.3667,-1.2373 0.03613,0.0078 0.06689,0.02881 0.10498,0.03271 0.39355,0.0415 2.00684,0.20068 3.23926,0.16455 0.11377,0.7085 0.19141,1.65918 0.05518,2.48096 -0.99316,-0.23877 -1.97998,-0.50781 -2.50439,-0.65869 -0.52881,-0.15381 -1.08447,0.15381 -1.2373,0.68457 -0.15283,0.53076 0.15381,1.08447 0.68457,1.2373 0.35645,0.10254 3.08545,0.87988 4.81445,1.13574 0.1499,1.17432 0.21973,3.81738 -1.43311,6.85205 -0.26416,0.48486 -0.08496,1.09229 0.40039,1.35645 0.15186,0.08252 0.31543,0.12158 0.47705,0.12158 0.35449,0 0.69775,-0.18848 0.87939,-0.52197 0.6123,-1.12402 1.01611,-2.19873 1.28516,-3.19385 1.45215,0.1626 4.17578,0.4165 6.08105,0.29297 -0.48193,2.30518 -1.60205,6.94189 -3.31592,9.93213 -1.15625,-1.10156 -2.39014,-2.31982 -3.33691,-3.27686 -0.38867,-0.3916 -1.021,-0.39502 -1.41455,-0.0073 -0.39258,0.38867 -0.39551,1.02197 -0.0073,1.41455 0.47021,0.47461 4.14062,4.17188 6.08936,5.77344 -1.23828,2.0835 -5.47021,8.26758 -13.98242,12.11133 -0.50342,0.22754 -0.72705,0.81982 -0.5,1.32324 0.16748,0.36963 0.53125,0.58887 0.91211,0.58887 0.1377,-4.9e-4 0.27734,-0.02881 0.41113,-0.08887 10.95947,-4.94922 15.1792,-13.41162 15.35352,-13.76953 0.22217,-0.45654 0.06738,-1.00684 -0.35986,-1.28027 -0.33301,-0.21338 -0.93994,-0.72949 -1.67334,-1.396 2.68555,-4.35693 4.01074,-12.05273 4.06787,-12.39014 0.06102,-0.36525 -0.1006,-0.72609 -0.39455,-0.95167 z"
         id="path20" /><path
         fill="#000000"
         d="m 55.12891,43.50537 c 0.55176,-0.02148 0.98145,-0.48682 0.95947,-1.03857 -0.02148,-0.55176 -0.48096,-0.97803 -1.03857,-0.95947 -0.83447,0.03271 -2.82227,0.11816 -3.25488,0.1958 -0.43018,0.07715 -0.76025,0.42432 -0.81592,0.85791 -0.02002,0.16016 -0.49854,3.95654 -0.39111,6.79541 0.02051,0.53906 0.46387,0.96191 0.99902,0.96191 0.0127,0 0.02539,0 0.03857,-4.9e-4 0.55176,-0.021 0.98193,-0.48535 0.96143,-1.0376 -0.07324,-1.92383 0.15137,-4.40967 0.28516,-5.66553 0.60644,-0.03662 1.48046,-0.07812 2.25683,-0.10937 z"
         id="path22" /><path
         fill="#000000"
         d="m 53.58008,62.8999 c 0.14941,0 0.30127,-0.03369 0.44434,-0.10449 0.49463,-0.24609 0.6958,-0.84619 0.4502,-1.34082 -0.94482,-1.89941 -2.25977,-4.90283 -2.87842,-6.33447 1.77051,-1.1626 4.12158,-3.40039 4.4248,-3.69092 0.39844,-0.38232 0.41162,-1.01562 0.0293,-1.41406 -0.38232,-0.39844 -1.01611,-0.41113 -1.41406,-0.0293 -0.89795,0.86133 -3.49902,3.2251 -4.73682,3.8125 -0.48486,0.22949 -0.70215,0.80127 -0.4917,1.29492 0.08008,0.18848 1.97998,4.64648 3.27588,7.25195 0.1748,0.35157 0.5288,0.55469 0.89648,0.55469 z"
         id="path24" /><path
         fill="#000000"
         d="m 51.22705,39.71484 c 0.2334,-0.50049 0.01709,-1.09521 -0.48389,-1.32861 -1.28955,-0.60107 -2.83936,-1.36035 -3.09473,-1.53857 -0.40137,-0.28027 -0.94531,-0.22803 -1.2876,0.12109 0,0 -2.4917,2.55029 -2.82373,2.86865 -0.39844,0.38232 -0.41162,1.01514 -0.0293,1.41406 0.19629,0.20459 0.45898,0.30762 0.72168,0.30762 0.24902,0 0.49854,-0.09229 0.69238,-0.27832 0.23779,-0.22852 1.5708,-1.58789 2.3335,-2.3667 0.87256,0.45459 2.16162,1.06055 2.64307,1.28467 0.50001,0.23486 1.09522,0.01807 1.32862,-0.48389 z"
         id="path26" /><path
         fill="#000000"
         d="m 58.12061,35.36328 c -0.11377,-0.27295 -0.3418,-0.48145 -0.62354,-0.56982 -0.2417,-0.0752 -0.49854,-0.05811 -0.72363,0.04834 -0.32275,0.09766 -1.70996,0.33594 -2.85107,0.50732 -0.5459,0.08154 -0.92236,0.59082 -0.84033,1.13721 0.08203,0.5459 0.59229,0.92676 1.13721,0.84033 1.12158,-0.16797 1.86865,-0.2959 2.37354,-0.39648 0.37744,0.97852 0.88232,2.39502 1.00391,3.17969 0.07666,0.49365 0.50244,0.84668 0.98682,0.84668 0.05127,0 0.10303,-0.0039 0.15479,-0.01172 0.5459,-0.08496 0.91943,-0.5957 0.83496,-1.1416 -0.22903,-1.47511 -1.32815,-4.14112 -1.45266,-4.43995 z"
         id="path28" /><path
         fill="#000000"
         d="m 64.5293,43.02393 c 0.03174,0.0029 0.0625,0.0044 0.09326,0.0044 0.51074,0 0.94678,-0.38916 0.99463,-0.90771 0.10986,-1.18896 0.06299,-3.43896 0.06104,-3.53418 -0.0063,-0.2915 -0.13965,-0.56543 -0.36426,-0.75049 -0.2251,-0.18555 -0.521,-0.26318 -0.80615,-0.21338 l -2.96143,0.51221 c -0.54443,0.09424 -0.90918,0.61182 -0.81494,1.15576 0.09375,0.54395 0.60938,0.90674 1.15576,0.81494 l 1.80225,-0.31152 c 4.9e-4,0.70752 -0.01172,1.58008 -0.06348,2.14209 -0.05078,0.55029 0.35351,1.0371 0.90332,1.08789 z"
         id="path30" /><path
         fill="#000000"
         d="m 67.82471,52.6167 c -0.09668,0.54395 0.26562,1.06299 0.80957,1.15918 0.02002,0.0039 1.55859,0.27783 2.83057,0.55859 -0.7085,2.26367 -1.77783,5.1001 -2.47217,5.80713 -0.38672,0.39453 -0.38086,1.02734 0.01367,1.41455 0.19434,0.19092 0.44727,0.28613 0.7002,0.28613 0.25879,0 0.51807,-0.1001 0.71387,-0.2998 1.44434,-1.47168 2.9751,-6.63623 3.26709,-7.65674 0.07373,-0.25732 0.04102,-0.5332 -0.09033,-0.76611 -0.13135,-0.2334 -0.35059,-0.40381 -0.6084,-0.47412 -1.33252,-0.36279 -3.89648,-0.81934 -4.00488,-0.83838 -0.54542,-0.1001 -1.06251,0.26611 -1.15919,0.80957 z"
         id="path32" /><path
         fill="#000000"
         d="m 36.50879,35.92236 c 0.12402,0.05029 0.25195,0.07422 0.37793,0.07422 0.39404,0 0.76758,-0.23438 0.92578,-0.62158 0.19043,-0.4668 0.53662,-1.37695 0.70508,-2.21436 0.36523,0.02197 0.67578,0.06006 0.81396,0.10547 0.4209,0.28271 0.99512,0.20801 1.32666,-0.18848 0.354,-0.42383 0.29736,-1.05469 -0.12646,-1.40869 -0.17139,-0.14258 -0.70215,-0.58398 -2.95312,-0.52539 -0.29541,0.0063 -0.57422,0.13477 -0.75928,0.36523 -0.18457,0.23096 -0.25928,0.52246 -0.20117,0.8125 0.02734,0.29248 -0.28613,1.38721 -0.65723,2.29736 -0.2085,0.51124 0.03662,1.09474 0.54785,1.30372 z"
         id="path34" /><path
         fill="#000000"
         d="m 52.61426,29.95264 c -0.36426,-0.01953 -0.68652,0.1333 -0.87939,0.43994 -0.16553,0.18701 -1.04639,0.80908 -1.88477,1.33154 -0.46875,0.29199 -0.61182,0.90869 -0.31982,1.37744 0.29199,0.46924 0.9082,0.6123 1.37744,0.31982 0.53662,-0.33447 0.95508,-0.61279 1.28223,-0.84473 0.27637,0.61475 0.49756,1.15527 0.53125,1.33398 0.06152,0.50732 0.49268,0.87939 0.99121,0.87939 0.04053,0 0.08105,-0.0024 0.12207,-0.0073 0.54834,-0.06641 0.93848,-0.56494 0.87207,-1.11328 -0.07861,-0.64697 -0.82715,-2.24072 -1.2666,-3.13281 -0.15968,-0.3247 -0.46388,-0.56493 -0.82569,-0.58397 z"
         id="path36" /><path
         fill="#000000"
         d="m 44.90771,33.35498 c 0.07715,0.01807 0.1543,0.02686 0.23047,0.02686 0.45312,0 0.86377,-0.31006 0.97217,-0.77051 0.01807,-0.0752 0.06152,-0.26416 0.11084,-0.50098 0.06934,0.03076 0.12451,0.05811 0.16162,0.08008 0.38672,0.33838 0.97412,0.33154 1.35156,-0.03076 0.39844,-0.38232 0.41162,-1.01514 0.0293,-1.41406 -0.11426,-0.11865 -0.41748,-0.43506 -2.04492,-0.9502 -0.29932,-0.09619 -0.62842,-0.04248 -0.88428,0.14014 -0.25586,0.18359 -0.41064,0.47705 -0.41748,0.79199 -0.0054,0.26221 -0.1543,1.00488 -0.25293,1.4248 -0.12695,0.5376 0.20606,1.07618 0.74365,1.20264 z"
         id="path38" /><path
         fill="#000000"
         d="m 42.11768,30.91748 c 0.08154,0.02002 0.16309,0.02979 0.24365,0.02979 0.44775,0 0.85547,-0.30273 0.96924,-0.75684 0.09766,-0.39014 0.17041,-0.68896 0.2251,-0.91943 0.26758,-0.01855 0.6001,-0.03418 0.91602,-0.04297 0.55176,-0.01465 0.9873,-0.47412 0.97266,-1.02637 -0.01514,-0.55225 -0.45508,-1.02539 -1.02637,-0.97266 -1.63037,0.04346 -2.62939,0.06982 -2.69434,1.07568 -0.05566,0.29883 -0.33252,1.39697 -0.3335,1.39941 -0.13379,0.53614 0.1914,1.07911 0.72754,1.21339 z"
         id="path40" /><path
         fill="#000000"
         d="m 47.98877,28.28516 c 0.11621,0.45068 0.52246,0.75 0.96777,0.75 0.08252,0 0.1665,-0.01025 0.25049,-0.03174 0.53467,-0.1377 0.85645,-0.68311 0.71826,-1.21826 l -0.02979,-0.11572 0.42139,-0.13525 c 0.52588,-0.16846 0.81592,-0.73145 0.64697,-1.25732 C 50.7954,25.7505 50.23339,25.45802 49.70654,25.6299 l -1.32031,0.42334 c -0.50488,0.16162 -0.79541,0.68896 -0.66309,1.20215 z"
         id="path42" /><path
         fill="#000000"
         d="m 45.36084,26.52197 c 0.30908,0 0.61426,-0.14258 0.80957,-0.41162 l 1.0127,-1.39258 c 0.3252,-0.44678 0.22607,-1.07227 -0.22021,-1.39697 -0.44678,-0.32568 -1.07227,-0.22559 -1.39697,0.22021 l -1.0127,1.39258 c -0.3252,0.44678 -0.22607,1.07227 0.22021,1.39697 0.17773,0.1294 0.38379,0.19141 0.5874,0.19141 z"
         id="path44" /><path
         fill="#000000"
         d="m 52.66455,27.95166 c 0.38232,0.39844 1.01562,0.41162 1.41406,0.0293 l 0.12207,-0.11719 0.55127,0.63086 c 0.19775,0.22607 0.47461,0.3418 0.75342,0.3418 0.2334,0 0.46826,-0.08154 0.65771,-0.24707 0.41553,-0.36328 0.45801,-0.99512 0.09473,-1.41113 L 55.01709,25.7588 c -0.17969,-0.20557 -0.43604,-0.32861 -0.70898,-0.34082 -0.2793,-0.01074 -0.53955,0.08789 -0.73633,0.27734 l -0.87793,0.84229 c -0.39844,0.38231 -0.41162,1.01561 -0.0293,1.41405 z"
         id="path46" /><path
         fill="#000000"
         d="m 57.77783,30.85889 0.88428,-0.03418 0.50049,1.02734 c 0.17285,0.35596 0.52881,0.56299 0.8999,0.5625 0.14648,0 0.2959,-0.03223 0.43652,-0.10107 0.49658,-0.2417 0.70312,-0.83984 0.46143,-1.33643 L 60.17432,29.3623 c -0.17334,-0.35693 -0.52197,-0.5708 -0.93799,-0.56152 l -1.53662,0.06006 c -0.55176,0.02148 -0.98193,0.48633 -0.95996,1.03809 0.02148,0.55175 0.49463,1.00293 1.03808,0.95996 z"
         id="path48" /><path
         fill="#000000"
         d="m 60.49219,34.48145 c 0.15723,0.52979 0.71533,0.83203 1.24316,0.67383 l 1.41602,-0.4209 0.77734,0.97412 c 0.19775,0.24707 0.48877,0.37598 0.78223,0.37598 0.21875,0 0.43896,-0.07129 0.62354,-0.21826 0.43164,-0.34473 0.50195,-0.97412 0.15771,-1.40576 L 64.29444,32.95997 C 64.04005,32.6421 63.61866,32.51124 63.22803,32.6255 l -2.06201,0.61279 c -0.52979,0.15722 -0.83106,0.71386 -0.67383,1.24316 z"
         id="path50" /><path
         fill="#000000"
         d="m 41.14844,79.25098 c -3.10059,-0.38281 -8.7832,-1.67188 -8.84033,-1.68506 -0.53467,-0.12256 -1.07373,0.21533 -1.19678,0.75342 -0.12256,0.53857 0.21484,1.07422 0.75342,1.19678 0.23682,0.05371 5.8374,1.32422 9.03857,1.72021 0.0415,0.0049 0.08301,0.0073 0.12402,0.0073 0.49756,0 0.92822,-0.37109 0.99121,-0.87744 0.06739,-0.54785 -0.32177,-1.04736 -0.87011,-1.11523 z"
         id="path52" /><path
         fill="#000000"
         d="m 62.3999,71.78516 c -0.38232,-0.39844 -1.01562,-0.41162 -1.41406,-0.0293 -0.39844,0.38232 -0.41162,1.01514 -0.0293,1.41406 l 2.42578,2.5293 c -1.51221,2.46533 -5.08398,4.36572 -8.04248,4.17188 -0.55566,-0.0293 -1.02734,0.38184 -1.06348,0.93262 -0.03564,0.55127 0.38184,1.02734 0.93262,1.06348 0.17822,0.01123 0.35693,0.01709 0.53711,0.01709 3.86377,0 8.23975,-2.62158 9.76807,-5.93506 0.17188,-0.37354 0.09814,-0.81445 -0.18652,-1.11133 z"
         id="path54" /><path
         fill="#000000"
         d="m 71.07568,70.0459 c -1.02637,1.63916 -2.23584,3.29492 -2.76465,3.59717 -0.47949,0.27441 -0.64551,0.88525 -0.37158,1.36475 0.18506,0.32275 0.52197,0.50342 0.86914,0.50342 0.16846,0 0.33887,-0.04248 0.49561,-0.13184 1.36914,-0.78369 3.43213,-4.18115 4.03223,-5.20361 0.14551,-0.24805 0.17676,-0.54688 0.08643,-0.81982 -0.09033,-0.27344 -0.29395,-0.49414 -0.55859,-0.60645 -0.89893,-0.38135 -3.11719,-2.04785 -3.896,-2.65771 -0.43555,-0.34033 -1.06396,-0.2627 -1.40381,0.1709 -0.34082,0.43506 -0.26416,1.06348 0.17041,1.40381 0.24169,0.18895 1.97509,1.53856 3.34081,2.37938 z"
         id="path56" /><path
         fill="#000000"
         d="m 51.00635,24.06201 c 0.19727,0.21143 0.46436,0.31836 0.73193,0.31836 0.24414,0 0.48877,-0.08887 0.68164,-0.26807 0.40381,-0.37646 0.42676,-1.00928 0.05029,-1.41357 l -1.98438,-2.13135 c -0.37744,-0.4043 -1.00879,-0.42578 -1.41357,-0.05029 -0.40381,0.37646 -0.42676,1.00928 -0.05029,1.41357 z"
         id="path58" /><path
         fill="#000000"
         d="m 50.59082,71.26465 c -0.146,-0.5332 -0.69629,-0.84912 -1.22803,-0.70166 l -1.35205,0.36914 c -0.5332,0.14551 -0.84717,0.69531 -0.70166,1.22803 0.12158,0.44482 0.52441,0.7373 0.96436,0.7373 0.08691,0 0.17578,-0.01172 0.26367,-0.03564 l 1.35205,-0.36914 c 0.5332,-0.14551 0.84717,-0.69532 0.70166,-1.22803 z"
         id="path60" /><path
         fill="#000000"
         d="m 43.01904,71.8042 c -0.39062,0.39062 -0.39062,1.02344 0,1.41406 l 0.9834,0.9834 c 0.19531,0.19531 0.45117,0.29297 0.70703,0.29297 0.25586,0 0.51172,-0.09766 0.70703,-0.29297 0.39062,-0.39062 0.39062,-1.02344 0,-1.41406 l -0.9834,-0.9834 c -0.39062,-0.39063 -1.02343,-0.39063 -1.41406,0 z"
         id="path62" /><path
         fill="#000000"
         d="m 49.87451,75.27002 -1.22949,-0.4917 c -0.51367,-0.20459 -1.09473,0.04492 -1.2998,0.55762 -0.20507,0.5127 0.04443,1.09473 0.55762,1.2998 l 1.22949,0.4917 c 0.12158,0.04834 0.24707,0.07178 0.37061,0.07178 0.39697,0 0.77246,-0.23828 0.9292,-0.62939 0.20507,-0.5127 -0.04444,-1.09473 -0.55763,-1.29981 z"
         id="path64" /><path
         fill="#000000"
         d="m 31.92529,74.53027 c 0.43604,-0.33936 0.51465,-0.96729 0.17578,-1.40332 L 31.24072,72.0205 c -0.33984,-0.43652 -0.96826,-0.51367 -1.40332,-0.17578 -0.43604,0.33936 -0.51465,0.96729 -0.17578,1.40332 l 0.86035,1.10645 c 0.19727,0.25342 0.49219,0.38623 0.79004,0.38623 0.21485,0 0.43067,-0.06884 0.61328,-0.21045 z"
         id="path66" /><path
         fill="#000000"
         d="m 26.46631,60.31641 c 0.3252,-0.44678 0.22607,-1.07227 -0.22021,-1.39697 l -1.35205,-0.9834 c -0.44727,-0.32471 -1.07129,-0.22607 -1.39697,0.22021 -0.3252,0.44678 -0.22607,1.07227 0.22021,1.39697 l 1.35205,0.9834 c 0.17773,0.12939 0.38379,0.19141 0.5874,0.19141 0.30908,0 0.61377,-0.14258 0.80957,-0.41162 z"
         id="path68" /><path
         fill="#000000"
         d="m 25.68115,64.16504 1.22949,0.12256 c 0.03369,0.0034 0.06689,0.0049 0.1001,0.0049 0.50781,0 0.94287,-0.38477 0.99414,-0.90088 0.05469,-0.54932 -0.34619,-1.03955 -0.896,-1.09424 L 25.87939,62.1748 c -0.54492,-0.05371 -1.03955,0.34668 -1.09424,0.896 -0.05469,0.54932 0.3462,1.03955 0.896,1.09424 z"
         id="path70" /><path
         fill="#000000"
         d="m 34.82617,57.25977 c -0.4126,0.36719 -0.44971,0.99902 -0.08301,1.41211 l 0.9834,1.10645 c 0.19775,0.22217 0.47217,0.33545 0.74805,0.33545 0.23633,0 0.47314,-0.0835 0.66406,-0.25244 0.4126,-0.36719 0.44971,-0.99902 0.08301,-1.41211 l -0.9834,-1.10645 c -0.36719,-0.41309 -0.99805,-0.44923 -1.41211,-0.08301 z"
         id="path72" /><path
         fill="#000000"
         d="m 38.56299,64.78418 c 0.27832,0 0.55518,-0.11572 0.75293,-0.34131 0.36377,-0.41553 0.32178,-1.04736 -0.09375,-1.41113 l -0.98291,-0.86035 c -0.4165,-0.36377 -1.04785,-0.32178 -1.41113,0.09375 -0.36377,0.41553 -0.32178,1.04736 0.09375,1.41113 l 0.98291,0.86035 c 0.18994,0.16602 0.42431,0.24756 0.6582,0.24756 z"
         id="path74" /><path
         fill="#000000"
         d="m 40.66992,55.42627 c 0,-0.55225 -0.44775,-1 -1,-1 h -1.10645 c -0.55225,0 -1,0.44775 -1,1 0,0.55225 0.44775,1 1,1 h 1.10645 c 0.55225,0 1,-0.44775 1,-1 z"
         id="path76" /><path
         fill="#000000"
         d="m 25.56299,47.93555 c -0.53906,0.12012 -0.87891,0.6543 -0.75879,1.19336 l 0.24609,1.10596 c 0.10352,0.46582 0.5166,0.78271 0.9751,0.78271 0.07178,0 0.14502,-0.0078 0.21826,-0.02393 0.53906,-0.12012 0.87891,-0.6543 0.75879,-1.19336 l -0.24609,-1.10596 c -0.12012,-0.53857 -0.65186,-0.87695 -1.19336,-0.75878 z"
         id="path78" /><path
         fill="#000000"
         d="m 33.64697,48.03467 c -0.55225,0 -1,0.44775 -1,1 0,0.55225 0.44775,1 1,1 h 1.22949 c 0.55225,0 1,-0.44775 1,-1 0,-0.55225 -0.44775,-1 -1,-1 z"
         id="path80" /><path
         fill="#000000"
         d="m 17.32617,58.54248 c -0.51904,0.18896 -0.78662,0.7627 -0.59814,1.28174 l 0.4917,1.35205 c 0.14795,0.40625 0.53125,0.65869 0.93994,0.65869 0.11377,0 0.229,-0.01953 0.3418,-0.06055 0.51904,-0.18896 0.78662,-0.7627 0.59814,-1.28174 l -0.4917,-1.35205 c -0.18896,-0.51953 -0.76367,-0.78759 -1.28174,-0.59814 z"
         id="path82" /><path
         fill="#000000"
         d="m 34.65186,76.68164 1.59766,0.36865 c 0.07568,0.01709 0.15088,0.02539 0.22559,0.02539 0.45508,0 0.8667,-0.3125 0.97363,-0.77539 0.12402,-0.53809 -0.21143,-1.07471 -0.75,-1.19922 l -1.59766,-0.36865 c -0.53418,-0.12109 -1.07471,0.21094 -1.19922,0.75 -0.12403,0.53809 0.21142,1.07471 0.75,1.19922 z"
         id="path84" /><path
         fill="#000000"
         d="m 32.03662,70.57666 c -0.0498,0.55029 0.35547,1.03662 0.90527,1.08691 l 1.35205,0.12305 c 0.03125,0.0024 0.06152,0.0039 0.0918,0.0039 0.51172,0 0.94775,-0.39014 0.99512,-0.90918 0.0498,-0.55029 -0.35547,-1.03662 -0.90527,-1.08691 l -1.35205,-0.12305 c -0.56104,-0.03955 -1.03663,0.35547 -1.08692,0.90527 z"
         id="path86" /><path
         fill="#000000"
         d="m 54.78955,78.55078 c 0.44775,0 0.85596,-0.30322 0.96924,-0.75781 0.13379,-0.53564 -0.19189,-1.07861 -0.72803,-1.2124 l -0.9834,-0.24561 c -0.5293,-0.1333 -1.07861,0.19189 -1.2124,0.72803 -0.13379,0.53564 0.19189,1.07861 0.72803,1.2124 l 0.9834,0.24561 c 0.08105,0.0205 0.16259,0.02978 0.24316,0.02978 z"
         id="path88" /><path
         fill="#000000"
         d="m 52.81885,72.83838 c -0.09082,0.54492 0.27686,1.06006 0.82178,1.15088 l 0.73779,0.12305 c 0.05566,0.0093 0.11133,0.01367 0.16553,0.01367 0.47998,0 0.90381,-0.34619 0.98535,-0.83545 0.09082,-0.54492 -0.27686,-1.06006 -0.82178,-1.15088 L 53.96973,72.0166 c -0.54493,-0.08984 -1.06006,0.27783 -1.15088,0.82178 z"
         id="path90" /><path
         fill="#000000"
         d="m 57.73877,74.58447 c -0.55225,0 -1,0.44775 -1,1 0,0.55225 0.44775,1 1,1 h 1.10596 c 0.55225,0 1,-0.44775 1,-1 0,-0.55225 -0.44775,-1 -1,-1 z"
         id="path92" /><path
         fill="#000000"
         d="m 45.96191,59.34766 c -0.54932,0.05518 -0.9502,0.54541 -0.89551,1.09473 0.05176,0.51562 0.48633,0.90039 0.99414,0.90039 0.0332,0 0.06689,-0.0015 0.10059,-0.0049 l 1.229,-0.12305 c 0.54932,-0.05518 0.9502,-0.54541 0.89551,-1.09473 -0.05518,-0.54883 -0.5459,-0.94971 -1.09473,-0.89551 z"
         id="path94" /><path
         fill="#000000"
         d="m 46.55225,63.79297 0.9834,0.12305 c 0.04199,0.0054 0.08398,0.0078 0.12549,0.0078 0.49658,0 0.92773,-0.37012 0.99072,-0.87598 C 48.7207,62.5 48.33203,62 47.78369,61.93164 l -0.9834,-0.12305 c -0.54932,-0.06982 -1.04785,0.31982 -1.11621,0.86816 -0.06885,0.54786 0.31983,1.04786 0.86817,1.11622 z"
         id="path96" /><path
         fill="#000000"
         d="M 37.56738,66.61523 C 37.43359,66.0791 36.8872,65.75341 36.35498,65.8872 l -0.9834,0.24561 c -0.53613,0.13379 -0.86182,0.67676 -0.72803,1.2124 0.11377,0.45459 0.52148,0.75781 0.96924,0.75781 0.08057,0 0.16211,-0.0093 0.24316,-0.02979 l 0.9834,-0.24561 c 0.53614,-0.13377 0.86182,-0.67674 0.72803,-1.21239 z"
         id="path98" /><path
         fill="#000000"
         d="m 44.92627,48.1792 1.59814,0.24561 c 0.05127,0.0078 0.10254,0.01172 0.15332,0.01172 0.48486,0 0.91113,-0.35352 0.98682,-0.84814 0.08398,-0.5459 -0.29053,-1.05615 -0.83643,-1.14014 l -1.59814,-0.24561 c -0.54199,-0.0835 -1.05664,0.28955 -1.14014,0.83643 -0.08398,0.54589 0.29053,1.05614 0.83643,1.14013 z"
         id="path100" /><path
         fill="#000000"
         d="m 45.58203,51.77686 c 0.18945,0.30371 0.51562,0.47021 0.84912,0.47021 0.18066,0 0.36426,-0.04883 0.52881,-0.15186 0.46826,-0.29248 0.61084,-0.90967 0.31836,-1.37793 l -0.61426,-0.9834 c -0.29248,-0.46777 -0.90967,-0.61182 -1.37793,-0.31836 -0.46826,0.29248 -0.61084,0.90967 -0.31836,1.37793 z"
         id="path102" /><path
         fill="#000000"
         d="m 48.92285,42.31836 -0.36865,-0.7373 c -0.24707,-0.49414 -0.84668,-0.69531 -1.3418,-0.44727 -0.49414,0.24707 -0.69434,0.84766 -0.44727,1.3418 l 0.36865,0.7373 c 0.17529,0.35059 0.52832,0.55273 0.89551,0.55273 0.1499,0 0.30273,-0.03369 0.44629,-0.10547 0.49415,-0.24706 0.69434,-0.84765 0.44727,-1.34179 z"
         id="path104" /><path
         fill="#000000"
         d="m 33.27734,42.41357 c 0.3042,0 0.60449,-0.13818 0.80127,-0.3999 0.33105,-0.44189 0.2417,-1.06885 -0.2002,-1.40039 l -0.9834,-0.7373 c -0.44287,-0.33105 -1.06885,-0.24023 -1.40039,0.2002 -0.33105,0.44189 -0.2417,1.06885 0.2002,1.40039 l 0.9834,0.7373 c 0.18018,0.13476 0.39063,0.1997 0.59912,0.1997 z"
         id="path106" /><path
         fill="#000000"
         d="m 55.19824,48.00977 c 0.19482,0.27832 0.50488,0.42676 0.82031,0.42676 0.19775,0 0.39795,-0.05859 0.57227,-0.18066 0.45264,-0.31689 0.5625,-0.94043 0.24609,-1.39307 l -0.86035,-1.22852 c -0.31689,-0.45215 -0.93945,-0.56299 -1.39258,-0.24609 -0.45264,0.31689 -0.5625,0.94043 -0.24609,1.39258 z"
         id="path108" /><path
         fill="#000000"
         d="m 61.5459,48.12402 c 0.1084,-0.5415 -0.24316,-1.06836 -0.78467,-1.17627 l -1.229,-0.24561 c -0.54102,-0.10791 -1.06836,0.24316 -1.17627,0.78467 -0.1084,0.5415 0.24316,1.06836 0.78467,1.17627 l 1.229,0.24561 c 0.06592,0.01318 0.13184,0.01953 0.19678,0.01953 0.46679,0 0.88476,-0.32861 0.97949,-0.8042 z"
         id="path110" /><path
         fill="#000000"
         d="m 59.43311,50.60156 -0.7373,0.61475 c -0.42383,0.35352 -0.48096,0.98438 -0.12744,1.40869 0.19775,0.23682 0.48193,0.35938 0.76855,0.35938 0.22559,0 0.45312,-0.07617 0.64014,-0.23193 l 0.7373,-0.61475 c 0.42383,-0.35352 0.48096,-0.98438 0.12744,-1.40869 -0.35401,-0.42383 -0.98438,-0.48243 -1.40869,-0.12745 z"
         id="path112" /><path
         fill="#000000"
         d="m 55.46631,56.13525 c 0.45947,-0.30615 0.5835,-0.92725 0.27734,-1.38672 -0.30615,-0.45898 -0.92773,-0.58447 -1.38672,-0.27734 l -0.73779,0.4917 c -0.45947,0.30615 -0.5835,0.92725 -0.27734,1.38672 0.19238,0.28906 0.50977,0.44531 0.83301,0.44531 0.19043,0 0.3833,-0.0542 0.55371,-0.16797 z"
         id="path114" /><path
         fill="#000000"
         d="m 55.00391,60.24561 c 0.19775,0.23682 0.48193,0.35938 0.76855,0.35938 0.22559,0 0.45312,-0.07617 0.64014,-0.23193 0.42383,-0.35352 0.48096,-0.98438 0.12744,-1.40869 l -0.61475,-0.7373 c -0.35449,-0.42383 -0.98486,-0.48096 -1.40869,-0.12744 -0.42383,0.35352 -0.48096,0.98438 -0.12744,1.40869 z"
         id="path116" /><path
         fill="#000000"
         d="m 57.26514,60.97461 c 0.12109,0.44482 0.52441,0.7373 0.96436,0.7373 0.08691,0 0.17529,-0.01172 0.26367,-0.03564 l 1.35254,-0.36865 c 0.53271,-0.14551 0.84668,-0.69482 0.70166,-1.22803 -0.14551,-0.5332 -0.69287,-0.84961 -1.22803,-0.70166 l -1.35254,0.36865 c -0.53272,0.14551 -0.84668,0.69483 -0.70166,1.22803 z"
         id="path118" /><path
         fill="#000000"
         d="m 53.36865,66.24561 c 0.15625,0.39062 0.53174,0.62891 0.92871,0.62891 0.12354,0 0.24902,-0.02344 0.37109,-0.07227 l 1.229,-0.4917 c 0.5127,-0.20508 0.76221,-0.78711 0.55664,-1.2998 -0.20508,-0.51221 -0.78516,-0.76123 -1.2998,-0.55664 l -1.229,0.4917 c -0.51269,0.20507 -0.7622,0.7871 -0.55664,1.2998 z"
         id="path120" /><path
         fill="#000000"
         d="m 66.27197,69.05566 -1.72119,0.12256 c -0.55127,0.03955 -0.96582,0.51758 -0.92676,1.06836 0.0376,0.52686 0.47656,0.9292 0.99658,0.9292 0.02393,0 0.04785,-9.8e-4 0.07178,-0.0024 l 1.72119,-0.12256 c 0.55127,-0.03955 0.96582,-0.51758 0.92676,-1.06836 -0.03906,-0.55127 -0.51904,-0.95019 -1.06836,-0.92676 z"
         id="path122" /><path
         fill="#000000"
         d="m 62.35742,66.98096 c -0.33887,0.43604 -0.26025,1.06396 0.17578,1.40332 0.18262,0.1416 0.39844,0.21045 0.61328,0.21045 0.29785,0 0.59277,-0.13281 0.79004,-0.38623 l 0.86035,-1.10645 c 0.33887,-0.43604 0.26025,-1.06396 -0.17578,-1.40332 -0.43604,-0.33838 -1.06396,-0.26123 -1.40332,0.17578 z"
         id="path124" /><path
         fill="#000000"
         d="m 74.22852,71.10986 -1.10645,1.7207 c -0.29834,0.46484 -0.16406,1.0835 0.30029,1.38232 0.16748,0.10742 0.35498,0.15869 0.54004,0.15869 0.3291,0 0.65088,-0.16211 0.84229,-0.45898 l 1.10645,-1.7207 c 0.29834,-0.46484 0.16406,-1.0835 -0.30029,-1.38232 -0.46534,-0.29932 -1.08351,-0.16357 -1.38233,0.30029 z"
         id="path126" /><path
         fill="#000000"
         d="m 76.79004,68.84082 c 0.09082,0 0.18311,-0.0127 0.2749,-0.03906 l 1.7207,-0.49121 c 0.53125,-0.15137 0.83887,-0.70508 0.68701,-1.23584 -0.15137,-0.53076 -0.70361,-0.84082 -1.23584,-0.68701 l -1.7207,0.49121 c -0.53125,0.15137 -0.83887,0.70508 -0.68701,1.23584 0.12549,0.43945 0.52539,0.72607 0.96094,0.72607 z"
         id="path128" /><path
         fill="#000000"
         d="m 73.96338,64.13623 h -1.229 c -0.55225,0 -1,0.44775 -1,1 0,0.55225 0.44775,1 1,1 h 1.229 c 0.55225,0 1,-0.44775 1,-1 0,-0.55225 -0.44776,-1 -1,-1 z"
         id="path130" /><path
         fill="#000000"
         d="m 73.23828,61.06982 -1.10596,0.12305 c -0.54932,0.06104 -0.94482,0.55518 -0.8833,1.104 0.05664,0.51172 0.48975,0.88965 0.99219,0.88965 0.03711,0 0.07471,-0.002 0.11182,-0.0064 l 1.10596,-0.12305 c 0.54932,-0.06104 0.94482,-0.55518 0.8833,-1.104 -0.06104,-0.54931 -0.56592,-0.9458 -1.10401,-0.8833 z"
         id="path132" /><path
         fill="#000000"
         d="m 66.79004,61.0459 c -0.49609,-0.24756 -1.09521,-0.04688 -1.3418,0.44727 l -0.61475,1.22949 c -0.24707,0.49414 -0.04688,1.09473 0.44727,1.3418 0.14355,0.07178 0.29639,0.10547 0.44629,0.10547 0.36719,0 0.72021,-0.20215 0.89551,-0.55273 l 0.61475,-1.22949 c 0.24707,-0.49416 0.04687,-1.09474 -0.44727,-1.34181 z"
         id="path134" /><path
         fill="#000000"
         d="m 67.02588,58.91357 c 0.13672,0.06396 0.28076,0.09375 0.42236,0.09375 0.37646,0 0.73682,-0.21338 0.90674,-0.57715 l 0.86035,-1.84375 c 0.2334,-0.50049 0.01709,-1.0957 -0.4834,-1.3291 -0.49951,-0.23389 -1.09521,-0.01758 -1.3291,0.4834 l -0.86035,1.84375 c -0.2334,0.50049 -0.01709,1.09571 0.4834,1.3291 z"
         id="path136" /><path
         fill="#000000"
         d="m 79.61865,58.02393 c 0.18359,0 0.36963,-0.05029 0.53564,-0.15625 l 1.35205,-0.86035 c 0.46631,-0.29639 0.60352,-0.91455 0.30713,-1.38037 -0.29639,-0.46631 -0.91553,-0.60449 -1.38037,-0.30713 l -1.35205,0.86035 c -0.46631,0.29639 -0.60352,0.91455 -0.30713,1.38037 0.19092,0.2998 0.51417,0.46338 0.84473,0.46338 z"
         id="path138" /><path
         fill="#000000"
         d="m 73.54492,49.40625 -1.229,-0.24609 c -0.54297,-0.10693 -1.06787,0.24268 -1.17676,0.78418 -0.1084,0.5415 0.24268,1.06836 0.78418,1.17676 l 1.229,0.24609 c 0.06641,0.01318 0.13232,0.01953 0.19727,0.01953 0.4668,0 0.88428,-0.32861 0.97949,-0.80371 0.1084,-0.54151 -0.24267,-1.06836 -0.78418,-1.17676 z"
         id="path140" /><path
         fill="#000000"
         d="m 68.84912,46.604 c -0.52588,-0.16504 -1.08691,0.13281 -1.24951,0.66162 l -0.4917,1.59766 c -0.1626,0.52783 0.13379,1.0874 0.66162,1.24951 0.09766,0.03027 0.19678,0.04492 0.29443,0.04492 0.42725,0 0.82275,-0.27637 0.95508,-0.70654 l 0.4917,-1.59766 c 0.1626,-0.52783 -0.13379,-1.0874 -0.66162,-1.24951 z"
         id="path142" /><path
         fill="#000000"
         d="m 67.48096,43.51611 c 0.03125,0.0024 0.06152,0.0039 0.0918,0.0039 0.51172,0 0.94775,-0.39014 0.99512,-0.90918 l 0.12305,-1.35205 c 0.0498,-0.55029 -0.35547,-1.03662 -0.90527,-1.08691 -0.55273,-0.04346 -1.03662,0.35596 -1.08691,0.90527 L 66.5757,42.4292 c -0.04982,0.55029 0.35545,1.03662 0.90526,1.08691 z"
         id="path144" /><path
         fill="#000000"
         d="m 48.88086,36.13281 c 0.18457,0.32324 0.52197,0.50391 0.86914,0.50391 0.16797,0 0.33887,-0.04248 0.49512,-0.13184 l 0.86035,-0.4917 c 0.47949,-0.27393 0.646,-0.88477 0.37207,-1.36426 -0.27344,-0.479 -0.88379,-0.64453 -1.36426,-0.37207 l -0.86035,0.4917 c -0.47949,0.27393 -0.646,0.88477 -0.37207,1.36426 z"
         id="path146" /><path
         fill="#000000"
         d="m 54.47266,38.37549 -0.7373,0.24561 c -0.52393,0.17432 -0.80713,0.74072 -0.63281,1.26465 0.13965,0.41943 0.52979,0.68457 0.94873,0.68457 0.10449,0 0.21143,-0.0166 0.31592,-0.05176 l 0.7373,-0.24561 c 0.52393,-0.17432 0.80713,-0.74072 0.63281,-1.26465 -0.17432,-0.52393 -0.74122,-0.80957 -1.26465,-0.63281 z"
         id="path148" /><path
         fill="#000000"
         d="m 55.42529,32.28955 c -0.15186,0.53076 0.15576,1.08447 0.68701,1.23584 l 0.86035,0.24561 c 0.0918,0.02637 0.18408,0.03906 0.2749,0.03906 0.43506,0 0.83545,-0.28662 0.96094,-0.72607 0.15186,-0.53076 -0.15576,-1.08447 -0.68701,-1.23584 l -0.86035,-0.24561 c -0.53125,-0.15234 -1.08398,0.15576 -1.23584,0.68701 z"
         id="path150" /><path
         fill="#000000"
         d="m 29.11182,60.24365 c 0.47021,-0.28955 0.6167,-0.90527 0.32715,-1.37598 l -0.63721,-1.03516 c -0.29053,-0.47021 -0.90625,-0.6167 -1.37598,-0.32715 -0.47021,0.28955 -0.6167,0.90527 -0.32715,1.37598 l 0.63721,1.03516 c 0.18896,0.30664 0.5166,0.47559 0.85254,0.47559 0.17871,0 0.35986,-0.04785 0.52344,-0.14844 z"
         id="path152" /></g></g></svg>
